<?xml version="1.0" encoding="UTF-8" standalone="no"?>
<!-- Created with Inkscape (http://www.inkscape.org/) -->

<svg
   xmlns:dc="http://purl.org/dc/elements/1.1/"
   xmlns:cc="http://creativecommons.org/ns#"
   xmlns:rdf="http://www.w3.org/1999/02/22-rdf-syntax-ns#"
   xmlns:svg="http://www.w3.org/2000/svg"
   xmlns="http://www.w3.org/2000/svg"
   xmlns:sodipodi="http://sodipodi.sourceforge.net/DTD/sodipodi-0.dtd"
   xmlns:inkscape="http://www.inkscape.org/namespaces/inkscape"
   version="1.1"
   id="svg2"
   width="106.66667"
   height="26.666668"
   viewBox="0 0 106.66667 26.666668"
   sodipodi:docname="boton_cerrar3.svg"
   inkscape:export-filename="/home/jesuministrosymas/Público/PROYECTO JESUMINISTROSYMAS/COMO ELABORAR PRODUCTOS DE LIMPIEZA EN VENEZUELA/media/imagen/popup/boton_cerrar3.png"
   inkscape:export-xdpi="90"
   inkscape:export-ydpi="90"
   inkscape:version="0.92.1 r15371">
  <metadata
     id="metadata8">
    <rdf:RDF>
      <cc:Work
         rdf:about="">
        <dc:format>image/svg+xml</dc:format>
        <dc:type
           rdf:resource="http://purl.org/dc/dcmitype/StillImage" />
        <dc:title></dc:title>
      </cc:Work>
    </rdf:RDF>
  </metadata>
  <defs
     id="defs6" />
  <sodipodi:namedview
     pagecolor="#ffffff"
     bordercolor="#666666"
     borderopacity="1"
     objecttolerance="10"
     gridtolerance="10"
     guidetolerance="10"
     inkscape:pageopacity="0"
     inkscape:pageshadow="2"
     inkscape:window-width="1024"
     inkscape:window-height="714"
     id="namedview4"
     showgrid="false"
     inkscape:zoom="2.3765624"
     inkscape:cx="12.172926"
     inkscape:cy="10.751505"
     inkscape:window-x="0"
     inkscape:window-y="31"
     inkscape:window-maximized="1"
     inkscape:current-layer="svg2" />
  <text
     xml:space="preserve"
     style="font-style:normal;font-variant:normal;font-weight:bold;font-stretch:normal;font-size:23.76501465px;line-height:125%;font-family:Arial;-inkscape-font-specification:'Arial Bold';letter-spacing:0px;word-spacing:0px;fill:#ff0000;fill-opacity:1;stroke:none;stroke-width:1.31888914;stroke-linecap:butt;stroke-linejoin:miter;stroke-miterlimit:4;stroke-dasharray:none;stroke-opacity:1"
     x="1.7463531"
     y="21.081089"
     id="text4489"
     transform="scale(0.93644792,1.067865)"><tspan
       sodipodi:role="line"
       id="tspan4487"
       x="1.7463531"
       y="21.081089"
       style="font-style:normal;font-variant:normal;font-weight:bold;font-stretch:normal;font-family:'Arial Black';-inkscape-font-specification:'Arial Black, Bold';fill:#ff0000;stroke:none;stroke-width:1.31888914;stroke-miterlimit:4;stroke-dasharray:none;stroke-opacity:1">CERRAR</tspan></text>
  <path
     sodipodi:type="inkscape:offset"
     inkscape:radius="1.3981289"
     inkscape:original="M 11.365234 0.037109375 C 8.0554465 0.037109375 5.4935261 0.95457145 3.6796875 2.7871094 C 1.8751986 4.6102976 0.97265625 7.2236684 0.97265625 10.626953 C 0.97265625 13.179417 1.4871598 15.273962 2.515625 16.910156 C 3.5440902 18.546351 4.7639791 19.691225 6.1757812 20.345703 C 7.5969331 20.990831 9.4255819 21.3125 11.660156 21.3125 C 13.502044 21.3125 15.015715 21.046604 16.203125 20.513672 C 17.399884 19.98074 18.401005 19.191696 19.205078 18.144531 C 20.009151 17.097367 20.596716 15.791866 20.970703 14.230469 L 15.404297 12.546875 C 15.123806 13.846481 14.669398 14.838957 14.042969 15.521484 C 13.42589 16.204011 12.510381 16.544922 11.294922 16.544922 C 10.042064 16.544922 9.0688297 16.124675 8.3769531 15.283203 C 7.6850766 14.432382 7.3398438 12.865307 7.3398438 10.583984 C 7.3398438 8.7420968 7.629304 7.3914209 8.2089844 6.53125 C 8.9756584 5.3718893 10.07968 4.7929688 11.519531 4.7929688 C 12.15531 4.7929688 12.729908 4.9237557 13.244141 5.1855469 C 13.758373 5.447338 14.19354 5.8204571 14.548828 6.3066406 C 14.763871 6.5964808 14.969672 7.0552118 15.166016 7.6816406 L 20.775391 6.4335938 C 20.055465 4.2644672 18.951443 2.6565395 17.464844 1.609375 C 15.987594 0.56221047 13.955097 0.037109375 11.365234 0.037109375 z M 24.029297 0.38867188 L 24.029297 20.949219 L 41.363281 20.949219 L 41.363281 16.292969 L 30.396484 16.292969 L 30.396484 12.240234 L 40.283203 12.240234 L 40.283203 8.046875 L 30.396484 8.046875 L 30.396484 4.7773438 L 41.054688 4.7773438 L 41.054688 0.38867188 L 24.029297 0.38867188 z M 44.882812 0.38867188 L 44.882812 20.949219 L 51.263672 20.949219 L 51.263672 12.603516 L 51.826172 12.603516 C 52.405852 12.603516 52.924678 12.762189 53.382812 13.080078 C 53.719401 13.32317 54.103118 13.852593 54.533203 14.666016 L 57.925781 20.949219 L 65.107422 20.949219 L 62.035156 14.988281 C 61.885561 14.689091 61.587457 14.262569 61.138672 13.710938 C 60.699237 13.159306 60.362648 12.801107 60.128906 12.632812 C 59.782968 12.380371 59.229981 12.127441 58.472656 11.875 C 59.416974 11.659957 60.160843 11.387786 60.703125 11.060547 C 61.553946 10.546314 62.222801 9.8794128 62.708984 9.0566406 C 63.195168 8.2245188 63.4375 7.2363645 63.4375 6.0957031 C 63.4375 4.7867475 63.120153 3.6803568 62.484375 2.7734375 C 61.848597 1.8571685 61.012424 1.2291667 59.974609 0.89257812 C 58.936795 0.55598953 57.43609 0.38867188 55.472656 0.38867188 L 44.882812 0.38867188 z M 67.210938 0.38867188 L 67.210938 20.949219 L 73.591797 20.949219 L 73.591797 12.603516 L 74.152344 12.603516 C 74.732024 12.603516 75.25085 12.762189 75.708984 13.080078 C 76.045573 13.32317 76.42929 13.852593 76.859375 14.666016 L 80.253906 20.949219 L 87.376953 20.949219 L 87.433594 20.949219 L 93.871094 20.949219 L 94.867188 17.554688 L 102.10352 17.554688 L 103.11328 20.949219 L 109.76172 20.949219 L 102.0332 0.38867188 L 95.105469 0.38867188 L 87.400391 20.884766 L 84.363281 14.988281 C 84.213686 14.689091 83.913629 14.262569 83.464844 13.710938 C 83.025409 13.159306 82.68882 12.801107 82.455078 12.632812 C 82.10914 12.380371 81.558106 12.127441 80.800781 11.875 C 81.745099 11.659957 82.487015 11.387786 83.029297 11.060547 C 83.880118 10.546314 84.548973 9.8794128 85.035156 9.0566406 C 85.52134 8.2245188 85.765625 7.2363645 85.765625 6.0957031 C 85.765625 4.7867475 85.446325 3.6803568 84.810547 2.7734375 C 84.174768 1.8571685 83.338596 1.2291667 82.300781 0.89257812 C 81.262966 0.55598953 79.762262 0.38867188 77.798828 0.38867188 L 67.210938 0.38867188 z M 111.86523 0.38867188 L 111.86523 20.949219 L 118.24609 20.949219 L 118.24609 12.603516 L 118.80664 12.603516 C 119.38632 12.603516 119.90515 12.762189 120.36328 13.080078 C 120.69987 13.32317 121.08359 13.852593 121.51367 14.666016 L 124.9082 20.949219 L 132.08789 20.949219 L 129.01562 14.988281 C 128.86603 14.689091 128.56793 14.262569 128.11914 13.710938 C 127.67971 13.159306 127.34312 12.801107 127.10938 12.632812 C 126.76344 12.380371 126.2124 12.127441 125.45508 11.875 C 126.3994 11.659957 127.14131 11.387786 127.68359 11.060547 C 128.53441 10.546314 129.20327 9.8794128 129.68945 9.0566406 C 130.17564 8.2245188 130.41992 7.2363645 130.41992 6.0957031 C 130.41992 4.7867475 130.10062 3.6803568 129.46484 2.7734375 C 128.82907 1.8571685 127.99289 1.2291667 126.95508 0.89257812 C 125.91726 0.55598953 124.41656 0.38867188 122.45312 0.38867188 L 111.86523 0.38867188 z M 51.263672 4.5390625 L 54.054688 4.5390625 C 55.214048 4.5390625 56.005046 4.7169777 56.425781 5.0722656 C 56.846517 5.4275536 57.056641 5.937735 57.056641 6.6015625 C 57.056641 7.0503473 56.921531 7.4470305 56.650391 7.7929688 C 56.388599 8.138907 56.047689 8.355306 55.626953 8.4394531 C 54.794831 8.6264468 54.2332 8.71875 53.943359 8.71875 L 51.263672 8.71875 L 51.263672 4.5390625 z M 73.591797 4.5390625 L 76.382812 4.5390625 C 77.542173 4.5390625 78.331217 4.7169777 78.751953 5.0722656 C 79.172689 5.4275536 79.382812 5.937735 79.382812 6.6015625 C 79.382812 7.0503473 79.247703 7.4470305 78.976562 7.7929688 C 78.714771 8.138907 78.373861 8.355306 77.953125 8.4394531 C 77.121003 8.6264468 76.559371 8.71875 76.269531 8.71875 L 73.591797 8.71875 L 73.591797 4.5390625 z M 118.24609 4.5390625 L 121.03711 4.5390625 C 122.19647 4.5390625 122.98551 4.7169777 123.40625 5.0722656 C 123.82699 5.4275536 124.03711 5.937735 124.03711 6.6015625 C 124.03711 7.0503473 123.902 7.4470305 123.63086 7.7929688 C 123.36907 8.138907 123.02816 8.355306 122.60742 8.4394531 C 121.7753 8.6264468 121.21367 8.71875 120.92383 8.71875 L 118.24609 8.71875 L 118.24609 4.5390625 z M 98.5 5.71875 L 100.77148 13.109375 L 96.242188 13.109375 L 98.5 5.71875 z "
     style="font-style:normal;font-variant:normal;font-weight:bold;font-stretch:normal;font-size:28.7222271px;line-height:125%;font-family:Arial;-inkscape-font-specification:'Arial Bold';letter-spacing:0px;word-spacing:0px;fill:#ff0000;fill-opacity:1;stroke:#ffffff;stroke-width:1.59399998;stroke-linecap:butt;stroke-linejoin:miter;stroke-miterlimit:4;stroke-dasharray:none;stroke-opacity:1"
     id="text4493"
     d="m 11.365234,-1.3613281 c -3.5681582,0 -6.5669394,1.02953387 -8.6796871,3.1640625 -2.11042588,2.1322955 -3.11132815,5.1737473 -3.11132815,8.8242186 0,2.740346 0.55505504,5.113867 1.75781245,7.027344 1.1371721,1.809138 2.5584167,3.17209 4.2558594,3.958984 a 1.3982687,1.3982687 0 0 0 0.00977,0.0059 c 1.6729187,0.759416 3.6937513,1.091797 6.0624998,1.091797 1.974714,0 3.67824,-0.277578 5.111328,-0.919922 l 0.0039,-0.002 c 1.39883,-0.623707 2.601099,-1.571434 3.539062,-2.792968 0.945556,-1.231421 1.605491,-2.727142 2.015625,-4.439453 A 1.3982687,1.3982687 0 0 0 21.375,12.892578 l -5.566406,-1.683594 a 1.3982687,1.3982687 0 0 0 -1.771485,1.042969 c -0.245763,1.138703 -0.625809,1.890982 -1.023437,2.324219 a 1.3982687,1.3982687 0 0 0 -0.0078,0.0078 c -0.311044,0.344034 -0.756909,0.5625 -1.710937,0.5625 -0.938814,0 -1.4080409,-0.230593 -1.8359376,-0.75 -0.3051958,-0.377869 -0.7207032,-1.675715 -0.7207032,-3.8125 0,-1.6954057 0.3096987,-2.7949229 0.6308594,-3.271484 A 1.3982687,1.3982687 0 0 0 9.375,7.3027344 c 0.5441617,-0.8228786 1.079444,-1.1113282 2.144531,-1.1113282 0.444039,0 0.78309,0.084069 1.089844,0.2402344 0.319782,0.1627983 0.575084,0.377007 0.810547,0.6992188 a 1.3982687,1.3982687 0 0 0 0.0059,0.00977 c 0.04876,0.06572 0.235037,0.4127352 0.40625,0.9589844 A 1.3982687,1.3982687 0 0 0 15.46875,9.046875 L 21.078125,7.7988281 A 1.3982687,1.3982687 0 0 0 22.101562,5.9941406 C 21.312095,3.6154863 20.040573,1.7143235 18.269531,0.46679688 16.479027,-0.80100689 14.142288,-1.3613281 11.365234,-1.3613281 Z m 12.664063,0.3515625 A 1.3982687,1.3982687 0 0 0 22.630859,0.38867188 V 20.949219 a 1.3982687,1.3982687 0 0 0 1.398438,1.398437 h 17.333984 a 1.3982687,1.3982687 0 0 0 1.398438,-1.398437 v -4.65625 a 1.3982687,1.3982687 0 0 0 -1.398438,-1.398438 h -9.568359 v -1.255859 h 8.488281 a 1.3982687,1.3982687 0 0 0 1.398438,-1.398438 V 8.046875 A 1.3982687,1.3982687 0 0 0 40.283203,6.6484375 H 31.794922 V 6.1757812 h 9.259766 A 1.3982687,1.3982687 0 0 0 42.453125,4.7773438 V 0.38867188 A 1.3982687,1.3982687 0 0 0 41.054688,-1.0097656 Z m 20.853515,0 A 1.3982687,1.3982687 0 0 0 43.484375,0.38867188 V 20.949219 a 1.3982687,1.3982687 0 0 0 1.398437,1.398437 h 6.38086 a 1.3982687,1.3982687 0 0 0 1.398437,-1.398437 v -6.587891 c 0.05954,0.07504 0.299869,0.325591 0.634766,0.958984 a 1.3982687,1.3982687 0 0 0 0.0059,0.0098 l 3.392578,6.283203 a 1.3982687,1.3982687 0 0 0 1.230469,0.734375 h 7.181641 a 1.3982687,1.3982687 0 0 0 1.052734,-0.478515 1.3982687,1.3982687 0 0 0 1.050782,0.478515 h 6.380859 a 1.3982687,1.3982687 0 0 0 1.398437,-1.398437 v -6.585938 c 0.06068,0.07632 0.298704,0.325129 0.632813,0.957031 a 1.3982687,1.3982687 0 0 0 0.0059,0.0098 l 3.394532,6.283203 a 1.3982687,1.3982687 0 0 0 1.230468,0.734375 h 7.123047 0.05664 6.4375 a 1.3982687,1.3982687 0 0 0 1.341797,-1.003906 l 0.701171,-2.390625 h 5.146488 l 0.71289,2.394531 a 1.3982687,1.3982687 0 0 0 1.33984,1 h 6.64844 a 1.3982687,1.3982687 0 0 0 1.05273,-0.478515 1.3982687,1.3982687 0 0 0 1.05078,0.478515 h 6.38086 a 1.3982687,1.3982687 0 0 0 1.39844,-1.398437 v -6.585938 c 0.0607,0.07632 0.29871,0.325134 0.63281,0.957031 a 1.3982687,1.3982687 0 0 0 0.006,0.0098 l 3.39453,6.283203 a 1.3982687,1.3982687 0 0 0 1.23047,0.734375 h 7.17969 a 1.3982687,1.3982687 0 0 0 1.24219,-2.039062 l -3.06446,-5.945313 c -0.24217,-0.484356 -0.57876,-0.940196 -1.05273,-1.523437 l -0.006,-0.0059 c -0.24681,-0.309748 -0.4615,-0.478342 -0.67383,-0.703125 0.96102,-0.612765 1.78661,-1.39398 2.35938,-2.3632809 a 1.3982687,1.3982687 0 0 0 0.004,-0.00586 c 0.62651,-1.0722731 0.92188,-2.3257421 0.92188,-3.6660157 0,-1.5338092 -0.39152,-2.9558001 -1.20508,-4.1191406 l -0.002,-0.00195 c -0.79243,-1.14100434 -1.91187,-1.98635429 -3.22461,-2.4121094 -1.28471,-0.41666132 -2.89073,-0.5722656 -4.9336,-0.5722656 H 111.86523 A 1.3982687,1.3982687 0 0 0 110.4668,0.38867188 V 18.851562 l -7.125,-18.95507762 a 1.3982687,1.3982687 0 0 0 -1.3086,-0.90624998 h -6.927731 a 1.3982687,1.3982687 0 0 0 -1.308594,0.90624998 L 87.201172,17.443359 85.613281,14.363281 c -0.244333,-0.488666 -0.581927,-0.941745 -1.054687,-1.523437 l -0.0059,-0.0059 c -0.246808,-0.309746 -0.461497,-0.478342 -0.673828,-0.703125 0.961016,-0.612766 1.786611,-1.393986 2.359375,-2.3632809 a 1.3982687,1.3982687 0 0 0 0.0039,-0.00586 c 0.626493,-1.0722667 0.921874,-2.325738 0.921874,-3.6660157 0,-1.5338092 -0.391522,-2.9558006 -1.205078,-4.1191406 l -0.002,-0.00195 C 85.164601,0.83361615 84.045168,-0.01174465 82.732422,-0.4375 81.447711,-0.8541629 79.841692,-1.0097656 77.798828,-1.0097656 H 67.210938 A 1.3982687,1.3982687 0 0 0 65.8125,0.38867188 V 19.265625 L 63.285156,14.363281 C 63.042983,13.878935 62.706385,13.42308 62.232422,12.839844 l -0.0059,-0.0059 c -0.246808,-0.309746 -0.461497,-0.478342 -0.673828,-0.703125 0.961016,-0.612766 1.786611,-1.393986 2.359375,-2.3632809 a 1.3982687,1.3982687 0 0 0 0.0039,-0.00586 c 0.627316,-1.0736748 0.919922,-2.3273339 0.919922,-3.6660157 0,-1.5324208 -0.38881,-2.9547031 -1.203126,-4.1191406 l -0.002,-0.00195 C 62.838429,0.83361485 61.718996,-0.01174473 60.40625,-0.4375 59.121539,-0.85416323 57.51552,-1.0097656 55.472656,-1.0097656 Z M 52.662109,5.9375 h 1.392579 c 1.016322,0 1.532197,0.2567027 1.46875,0.203125 0.09197,0.077663 0.134765,0.092147 0.134765,0.4609375 0,0.1681734 -0.01729,0.213128 -0.107422,0.328125 a 1.3982687,1.3982687 0 0 0 -0.01563,0.019531 c -0.07865,0.1039294 -0.0705,0.096913 -0.18164,0.1191406 a 1.3982687,1.3982687 0 0 0 -0.0332,0.00781 c -0.796848,0.179067 -1.383945,0.2441406 -1.376953,0.2441406 h -1.28125 z m 22.328125,0 h 1.392578 c 1.016324,0 1.528612,0.255324 1.466797,0.203125 0.09197,0.077663 0.134766,0.092145 0.134766,0.4609375 0,0.1681755 -0.01729,0.2131299 -0.107422,0.328125 a 1.3982687,1.3982687 0 0 0 -0.01563,0.019531 c -0.07865,0.1039275 -0.0705,0.096913 -0.18164,0.1191406 a 1.3982687,1.3982687 0 0 0 -0.0332,0.00781 c -0.796848,0.1790669 -1.383947,0.2441406 -1.376953,0.2441406 h -1.279297 z m 44.654296,0 h 1.39258 c 1.01632,0 1.5286,0.2553129 1.4668,0.203125 0.092,0.077661 0.13476,0.092141 0.13476,0.4609375 0,0.1681734 -0.0173,0.213128 -0.10742,0.328125 a 1.3982687,1.3982687 0 0 0 -0.0156,0.019531 c -0.0786,0.1039256 -0.0705,0.096912 -0.18164,0.1191406 a 1.3982687,1.3982687 0 0 0 -0.0332,0.00781 c -0.79684,0.1790669 -1.38395,0.2441406 -1.37695,0.2441406 h -1.2793 z m -21.140624,4.552734 0.375,1.220704 h -0.746094 z"
     transform="matrix(0.77482501,0,0,0.88356067,1.9389598,4.0031326)" />
</svg>
